<svg xmlns="http://www.w3.org/2000/svg" viewBox="0 0 600 400" width="600" height="400">
  <defs>
    <linearGradient id="bgGrad" x1="0%" y1="0%" x2="0%" y2="100%">
      <stop offset="0%" style="stop-color:#1a365d"/>
      <stop offset="100%" style="stop-color:#2d5a9e"/>
    </linearGradient>
  </defs>
  <!-- Background -->
  <rect width="600" height="400" fill="#f0f4f8"/>
  <!-- Sky/background -->
  <rect width="600" height="250" fill="url(#bgGrad)"/>
  <!-- Banner -->
  <rect x="150" y="60" width="300" height="50" rx="6" fill="#d69e2e"/>
  <text x="300" y="92" text-anchor="middle" font-family="sans-serif" font-size="18" font-weight="bold" fill="#1a365d">BEAVERCREEK ROBOTICS · FRC 5</text>
  <!-- Floor -->
  <rect y="300" width="600" height="100" fill="#e2e8f0"/>
  <!-- Back row students (5 people) -->
  <!-- Person 1 -->
  <circle cx="80" cy="230" r="25" fill="#4a5568"/>
  <rect x="58" y="255" width="44" height="65" rx="8" fill="#1a365d"/>
  <!-- Person 2 -->
  <circle cx="160" cy="225" r="25" fill="#718096"/>
  <rect x="138" y="250" width="44" height="70" rx="8" fill="#c53030"/>
  <!-- Person 3 -->
  <circle cx="240" cy="220" r="25" fill="#4a5568"/>
  <rect x="218" y="245" width="44" height="75" rx="8" fill="#1a365d"/>
  <!-- Person 4 -->
  <circle cx="360" cy="220" r="25" fill="#718096"/>
  <rect x="338" y="245" width="44" height="75" rx="8" fill="#c53030"/>
  <!-- Person 5 -->
  <circle cx="440" cy="225" r="25" fill="#4a5568"/>
  <rect x="418" y="250" width="44" height="70" rx="8" fill="#1a365d"/>
  <!-- Person 6 -->
  <circle cx="520" cy="230" r="25" fill="#718096"/>
  <rect x="498" y="255" width="44" height="65" rx="8" fill="#c53030"/>
  <!-- Front row students (4 people) -->
  <!-- Person 7 -->
  <circle cx="120" cy="290" r="22" fill="#718096"/>
  <rect x="100" y="312" width="40" height="88" rx="8" fill="#c53030"/>
  <!-- Person 8 -->
  <circle cx="210" cy="285" r="22" fill="#4a5568"/>
  <rect x="190" y="307" width="40" height="93" rx="8" fill="#1a365d"/>
  <!-- Person 9 -->
  <circle cx="300" cy="280" r="25" fill="#718096"/>
  <rect x="278" y="305" width="44" height="95" rx="8" fill="#d69e2e"/>
  <!-- Person 10 -->
  <circle cx="390" cy="285" r="22" fill="#4a5568"/>
  <rect x="370" y="307" width="40" height="93" rx="8" fill="#1a365d"/>
  <!-- Person 11 -->
  <circle cx="480" cy="290" r="22" fill="#718096"/>
  <rect x="460" y="312" width="40" height="88" rx="8" fill="#c53030"/>
  <!-- Robot in center front -->
  <rect x="260" y="330" width="80" height="70" rx="8" fill="#2d5a9e"/>
  <rect x="270" y="310" width="60" height="50" rx="8" fill="#1a365d"/>
  <rect x="280" y="320" width="18" height="12" rx="3" fill="#d69e2e"/>
  <rect x="302" y="320" width="18" height="12" rx="3" fill="#d69e2e"/>
  <!-- Faces (simple) -->
  <circle cx="80" cy="230" r="10" fill="#f6ad55" opacity="0.8"/>
  <circle cx="160" cy="225" r="10" fill="#f6ad55" opacity="0.8"/>
  <circle cx="240" cy="220" r="10" fill="#f6ad55" opacity="0.8"/>
  <circle cx="360" cy="220" r="10" fill="#f6ad55" opacity="0.8"/>
  <circle cx="440" cy="225" r="10" fill="#f6ad55" opacity="0.8"/>
  <circle cx="520" cy="230" r="10" fill="#f6ad55" opacity="0.8"/>
  <circle cx="120" cy="290" r="9" fill="#f6ad55" opacity="0.8"/>
  <circle cx="210" cy="285" r="9" fill="#f6ad55" opacity="0.8"/>
  <circle cx="300" cy="280" r="10" fill="#f6ad55" opacity="0.8"/>
  <circle cx="390" cy="285" r="9" fill="#f6ad55" opacity="0.8"/>
  <circle cx="480" cy="290" r="9" fill="#f6ad55" opacity="0.8"/>
  <!-- Caption -->
  <text x="300" y="388" text-anchor="middle" font-family="sans-serif" font-size="13" fill="#4a5568">Team Photo — Beavercreek Robotics 2024 Season</text>
</svg>
