<svg xmlns="http://www.w3.org/2000/svg" viewBox="0 0 64 64" width="64" height="64">
  <rect x="12" y="16" width="40" height="32" rx="6" fill="#1a365d"/>
  <rect x="30" y="6" width="4" height="10" rx="2" fill="#1a365d"/>
  <circle cx="32" cy="5" r="4" fill="#d69e2e"/>
  <rect x="17" y="24" width="10" height="8" rx="2" fill="#d69e2e"/>
  <rect x="37" y="24" width="10" height="8" rx="2" fill="#d69e2e"/>
  <circle cx="20" cy="26" r="2" fill="#ffffff" opacity="0.8"/>
  <circle cx="40" cy="26" r="2" fill="#ffffff" opacity="0.8"/>
  <rect x="20" y="36" width="24" height="5" rx="2" fill="#c53030"/>
  <rect x="26" y="36" width="2" height="5" fill="#1a365d" opacity="0.5"/>
  <rect x="31" y="36" width="2" height="5" fill="#1a365d" opacity="0.5"/>
  <rect x="36" y="36" width="2" height="5" fill="#1a365d" opacity="0.5"/>
  <circle cx="12" cy="30" r="4" fill="#c53030"/>
  <circle cx="52" cy="30" r="4" fill="#c53030"/>
  <rect x="26" y="48" width="12" height="6" rx="2" fill="#2d5a9e"/>
  <rect x="16" y="54" width="32" height="10" rx="4" fill="#1a365d"/>
</svg>
