<svg xmlns="http://www.w3.org/2000/svg" viewBox="0 0 64 64" width="64" height="64">
  <!-- Dark circular background -->
  <circle cx="32" cy="32" r="30" fill="#1a1a1a"/>
  <!-- Left half: tiger orange -->
  <path d="M32,4 C20,4 10,10 5,20 C2,26 2,32 5,38 C10,48 20,58 32,60 Z" fill="#e8661a"/>
  <!-- Right half: robot gray -->
  <path d="M32,4 C44,4 54,10 59,20 C62,26 62,32 59,38 C54,48 44,58 32,60 Z" fill="#808080"/>
  <!-- Gear circle on right -->
  <circle cx="44" cy="30" r="8" fill="#1a1a1a" stroke="#666" stroke-width="1.5"/>
  <circle cx="44" cy="30" r="4" fill="#555"/>
  <circle cx="44" cy="30" r="1.5" fill="#e8661a"/>
  <!-- Lightning bolt on left (tiger eye) -->
  <path d="M22,22 L18,32 L23,30 L19,42 L27,30 L22,32 Z" fill="#ffcc44"/>
  <!-- Text hint lines -->
  <rect x="10" y="50" width="14" height="2.5" rx="1" fill="#e8661a" opacity="0.8"/>
  <rect x="40" y="50" width="14" height="2.5" rx="1" fill="#e8661a" opacity="0.8"/>
</svg>
